<?xml version="1.0" encoding="UTF-8"?>
<svg width="1200pt" height="1200pt" version="1.1" viewBox="0 0 1200 1200" xmlns="http://www.w3.org/2000/svg">
 <path d="m603.96 152.28h-7.9219c-246.84 0-447.72 200.88-447.72 447.72s200.88 447.72 447.72 447.72h7.9219c246.84 0 447.72-200.88 447.72-447.72s-200.88-447.72-447.72-447.72zm0 812.04h-7.9219c-200.88 0-364.44-163.44-364.44-364.44s163.44-364.44 364.44-364.44h7.9219c200.88 0 364.44 163.44 364.44 364.44s-163.44 364.44-364.44 364.44zm190.2-270.24-152.52-82.199v-189c0-23.039-18.602-41.641-41.641-41.641s-41.641 18.602-41.641 41.641v213.96c0 15.359 8.3984 29.398 21.84 36.719l174.48 93.961c6.2383 3.3594 13.078 5.0391 19.68 5.0391 14.879 0 29.16-7.9219 36.719-21.84 10.922-20.281 3.3594-45.48-16.922-56.398z" fill="#0c6efc"/>
</svg>
