<?xml version="1.0" encoding="UTF-8"?>
<svg width="1200pt" height="1200pt" version="1.1" viewBox="0 0 1200 1200" xmlns="http://www.w3.org/2000/svg">
 <path d="m570.54 544.87c-3.875-3.875-9.332-5.7305-14.766-5.0156-5.4336 0.71484-10.227 3.918-12.969 8.6641-2.7383 4.7461-3.1172 10.496-1.0195 15.562 2.0977 5.0625 6.4336 8.8633 11.727 10.281s10.945 0.28906 15.293-3.0469c4.3477-3.3359 6.8984-8.5078 6.8945-13.988 0.011719-4.6758-1.8477-9.1562-5.1602-12.457zm-25.68-138.29v0.003907c0-7.293 5.9102-13.203 13.199-13.203 7.293 0 13.203 5.9102 13.203 13.203v108.7c13.719 4.3281 24.469 15.078 28.797 28.797h74.223c7.2891 0 13.199 5.9102 13.199 13.203 0 7.2891-5.9102 13.199-13.199 13.199h-74.148c-4.625 14.699-16.59 25.914-31.555 29.582s-30.762-0.75-41.656-11.645-15.312-26.688-11.645-41.656c3.668-14.965 14.883-26.93 29.582-31.555zm212.09 448.8c-4.8945 0.007813-9.5859 1.9531-13.043 5.4141-3.4609 3.457-5.4102 8.1484-5.4141 13.043-0.007813 4.8906 1.9258 9.5859 5.375 13.055l93.734 93.816c3.4805 3.4375 8.1758 5.3633 13.066 5.3633s9.5859-1.9258 13.066-5.3633l163.12-163.07c4.6406-4.6094 6.5-11.324 4.8984-17.664-1.6016-6.3359-6.4297-11.359-12.699-13.211-6.2734-1.8516-13.055-0.25391-17.844 4.1992-0.16797 0.17969-0.32422 0.35938-0.50391 0.52734l-140.64 140.65c-2.4766 2.4883-5.8398 3.8867-9.3516 3.8867-3.5117 0-6.8789-1.3984-9.3555-3.8867l-71.34-71.34c-3.4688-3.457-8.1719-5.3945-13.066-5.375zm-31.777-13.32c8.4375-8.4258 19.875-13.16 31.801-13.16 11.926 0 23.363 4.7344 31.801 13.16l62.004 61.992 131.23-131.25c0.27734-0.27734 0.5625-0.53906 0.85156-0.78125 11.5-11.199 28.102-15.41 43.551-11.051 15.445 4.3633 27.395 16.633 31.344 32.191 3.9453 15.559-0.70703 32.043-12.207 43.238l-163.07 163.02c-8.4414 8.418-19.879 13.145-31.801 13.145-11.922 0-23.359-4.7266-31.801-13.145l-93.77-93.77h0.003906c-8.4297-8.4375-13.16-19.875-13.16-31.801 0-11.926 4.7305-23.363 13.16-31.801zm-92.004-44.195c-11.055 3.4531-22.34 6.1328-33.77 8.0156-9.3008 1.5234-18.68 2.5234-28.09 3v-36.336c0-7.2891-5.9102-13.199-13.199-13.199-7.293 0-13.203 5.9102-13.203 13.199v36.375c-62.168-3.2539-120.93-29.41-164.96-73.426-44.023-44.02-70.191-102.78-73.457-164.95h36.371c7.2891 0 13.199-5.9102 13.199-13.199 0-7.2891-5.9102-13.199-13.199-13.199h-36.371c3.2578-62.168 29.414-120.93 73.43-164.95s102.77-70.191 164.94-73.457v36.375c0 7.2891 5.9102 13.199 13.199 13.199 7.293 0 13.203-5.9102 13.203-13.199v-36.375c62.164 3.2578 120.92 29.414 164.95 73.426 44.02 44.016 70.188 102.77 73.457 164.93h-36.371c-7.293 0-13.199 5.9102-13.199 13.199 0 7.2891 5.9062 13.199 13.199 13.199h36.383c-1.0742 21.383-4.8828 42.539-11.328 62.953-38.367 13.203-73.207 35.008-101.86 63.742-28.438 28.352-50.086 62.773-63.324 100.68zm322.63-169.46c-41.695-11.328-85.508-12.426-127.71-3.2031 1.8008-7.1367 3.3086-14.336 4.5234-21.602v0.003906c9.8086-58.176 0.88672-117.96-25.484-170.74-26.371-52.773-68.824-95.805-121.24-122.89-52.414-27.082-112.07-36.812-170.38-27.793-58.301 9.0234-112.23 36.332-154.01 77.988-41.773 41.656-69.238 95.508-78.422 153.79-9.1875 58.277 0.375 117.96 27.309 170.45s69.848 95.066 122.55 121.59c52.699 26.52 112.46 35.613 170.66 25.969 7.1289-1.1602 14.148-2.5977 21.059-4.3086-9.7578 43.629-8.4453 89.008 3.8164 132l-11.578 81.887h-117.7l-14.398-101.8c-0.76562-5.4531-4.8359-9.8555-10.211-11.051-42.609-9.5117-83.246-26.348-120.1-49.75-4.625-2.9219-10.57-2.6875-14.953 0.58594l-82.141 61.754-41.641-41.629-41.637-41.652 61.199-81.266c3.918-4.4062 4.4336-10.875 1.2734-15.852-23.262-36.645-40.035-77.023-49.586-119.36-0.93359-5.7109-5.4766-10.145-11.207-10.945l-101.77-14.398v-117.71l101.76-14.398v-0.003906c5.4531-0.75781 9.8633-4.8242 11.062-10.199 9.4883-42.605 26.293-83.246 49.668-120.11 2.9258-4.6289 2.6914-10.582-0.58594-14.965l-61.812-82.141 83.281-83.281 81.254 61.117h-0.003906c4.4062 3.918 10.875 4.4375 15.852 1.2734 36.648-23.262 77.031-40.035 119.38-49.586 5.7148-0.93359 10.152-5.4844 10.945-11.219l14.375-101.76h117.73l14.398 101.73 0.003906 0.003906c0.76172 5.457 4.832 9.8672 10.211 11.062 42.609 9.5117 83.242 26.348 120.1 49.754 4.625 2.918 10.57 2.6836 14.953-0.58984l82.129-61.777 83.281 83.281-61.109 81.254c-3.9141 4.4062-4.4336 10.875-1.2695 15.852 23.273 36.637 40.047 77.016 49.582 119.36 0.93359 5.7109 5.4766 10.145 11.207 10.941l101.77 14.398v117.72l-86.398 12.203zm-240.6 87.543c45.133-45.133 106.35-70.488 170.17-70.488 63.828 0 125.04 25.355 170.17 70.488 33.656 33.656 56.578 76.535 65.863 123.22 9.2891 46.684 4.5234 95.074-13.691 139.05-18.219 43.973-49.062 81.559-88.641 108-39.574 26.445-86.105 40.559-133.7 40.559s-94.125-14.113-133.7-40.559c-39.574-26.445-70.422-64.031-88.637-108-18.215-43.977-22.98-92.367-13.695-139.05 9.2852-46.684 32.207-89.562 65.863-123.22z" fill="#fff" fill-rule="evenodd"/>
</svg>
