<?xml version="1.0" encoding="UTF-8"?>
<svg width="1200pt" height="1200pt" version="1.1" viewBox="0 0 1200 1200" xmlns="http://www.w3.org/2000/svg">
 <path d="m146.61 451.2c45.984 78.043 106.88 146.27 179.22 200.8 157.64-123.78 232.18-259.91 265.78-458.12-103.43-7.0664-181.95-61.488-265.78-132.67-83.832 71.184-162.35 125.61-265.73 132.67 13.227 90.258 42.527 177.41 86.508 257.33zm330.66-12.539c-37.293 63.008-85.133 119.14-141.43 165.95-2.7461 2.4023-6.2656 3.7422-9.9141 3.7617-3.6484 0.023437-7.1836-1.2695-9.957-3.6445-120.36-102.95-183.96-215.42-217.05-369.35-0.83203-3.9453-0.0625-8.0586 2.1406-11.438 2.2031-3.375 5.6602-5.7383 9.6094-6.5625 37.684-8.1992 73.918-22.012 107.5-40.98 34.535-19.695 67.305-42.34 97.945-67.68 2.6875-2.2383 6.0664-3.4766 9.5664-3.5117 3.5-0.03125 6.9023 1.1445 9.6328 3.332 61.141 49.199 128.4 93.254 205.69 108.83 3.9375 0.83594 7.3828 3.2031 9.5781 6.5781 2.1953 3.375 2.957 7.4844 2.1211 11.422-14.184 71.336-39.66 139.95-75.469 203.26zm-151.44 134.45c-105.11-92.809-162.41-193.78-193.95-329.51 73.008-18.539 135.12-57.406 193.95-103.8 58.801 46.402 120.94 85.262 193.96 103.8-31.535 135.74-88.801 236.71-193.96 329.52zm-91.922-212.21v-0.003906c-3.6758-3.9219-5.0039-9.4961-3.4922-14.656 1.5156-5.1602 5.6445-9.1328 10.859-10.445 5.2148-1.3125 10.734 0.23047 14.512 4.0547l49.598 51.422 90.086-101.41-0.003906-0.003906c3.6055-4.0547 9.1055-5.8789 14.422-4.7812 5.3164 1.0977 9.6406 4.9453 11.352 10.098 1.707 5.1523 0.53906 10.824-3.0703 14.879l-100.96 113.66c-2.8086 3.1602-6.8086 5.0039-11.035 5.0859-4.2266 0.082031-8.2969-1.6055-11.223-4.6523l-61.02-63.227zm746.03-1.4883 160.07-0.003906v-61.031c0-47.387-33.602-91.535-80.027-91.535-46.43 0-80.027 44.148-80.027 91.535v61.031zm-919.93 596.34v91.523c0 47.387 33.602 91.523 80.039 91.523h656.61c-24.348-24.207-37.91-57.207-37.621-91.535v-91.512zm583.2-584.32c-5.4336 0-10.457-2.9023-13.176-7.6094s-2.7188-10.508 0-15.215c2.7188-4.7109 7.7422-7.6094 13.176-7.6094h190.34c5.4375 0 10.461 2.8984 13.18 7.6094 2.7188 4.707 2.7188 10.508 0 15.215s-7.7422 7.6094-13.18 7.6094zm-44.398 162.06c-5.4375 0-10.461-2.8984-13.18-7.6094-2.7148-4.707-2.7148-10.508 0-15.215 2.7188-4.707 7.7422-7.6094 13.18-7.6094h234.74c5.4375 0 10.461 2.9023 13.18 7.6094s2.7188 10.508 0 15.215c-2.7188 4.7109-7.7422 7.6094-13.18 7.6094zm-114.75 162.06c-5.4336 0-10.457-2.8984-13.176-7.6055-2.7188-4.7109-2.7188-10.508 0-15.219 2.7188-4.707 7.7422-7.6055 13.176-7.6055h349.49c5.4375 0 10.461 2.8984 13.18 7.6055 2.7188 4.7109 2.7188 10.508 0 15.219-2.7188 4.707-7.7422 7.6055-13.18 7.6055zm-158.23 162.06c-5.4375 0-10.461-2.9023-13.176-7.6094-2.7188-4.707-2.7188-10.508 0-15.215 2.7148-4.707 7.7383-7.6094 13.176-7.6094h507.72c5.4375 0 10.461 2.9023 13.18 7.6094s2.7188 10.508 0 15.215c-2.7188 4.707-7.7422 7.6094-13.18 7.6094zm-9.4805-174.55v-0.003906c2.6445 2.1211 5.9219 3.293 9.3125 3.332 3.3867 0.039063 6.6914-1.0586 9.3828-3.1133 167.3-128.03 248.73-270.16 285.04-476.4l367.06-0.003906c-24.352 24.207-37.918 57.203-37.633 91.535v748.86c0 47.387-33.602 91.535-80.027 91.535-46.43 0-80.027-44.148-80.027-91.535v-106.74c0-4.0352-1.6055-7.9062-4.457-10.758-2.8555-2.8555-6.7266-4.457-10.762-4.457h-551.03l-0.20312-324.25c29.145 29.5 60.336 56.902 93.348 81.996z" fill="#fff" fill-rule="evenodd"/>
</svg>
