<?xml version="1.0" encoding="UTF-8"?>
<svg width="1200pt" height="1200pt" version="1.1" viewBox="0 0 1200 1200" xmlns="http://www.w3.org/2000/svg">
 <g fill="#fff">
  <path d="m288.61 880.49v-449.11h635v115.57c16.816 7.0117 32.789 15.887 47.625 26.461v-246.59c0-6.3164-2.5078-12.375-6.9727-16.84-4.4648-4.4648-10.523-6.9727-16.84-6.9727h-682.84c-6.3164 0-12.371 2.5078-16.84 6.9727-4.4648 4.4648-6.9727 10.523-6.9727 16.84v577.48c0 6.3125 2.5078 12.371 6.9727 16.836 4.4688 4.4648 10.523 6.9766 16.84 6.9766h378.04c-12.188-14.613-22.633-30.594-31.117-47.625z"/>
  <path d="m383.23 745.6h26.672c14.613 0 26.457 14.613 26.457 26.457v28.312c0 14.613-11.848 26.457-26.457 26.457h-26.672c-14.613 0-26.457-14.613-26.457-26.457v-28.312c0-14.613 11.848-26.457 26.457-26.457z"/>
  <path d="m383.23 612.62h26.672c14.613 0 26.457 14.613 26.457 26.457v28.312c0 14.613-11.848 26.457-26.457 26.457h-26.672c-14.613 0-26.457-14.613-26.457-26.457v-28.312c0-14.613 11.848-26.457 26.457-26.457z"/>
  <path d="m383.23 479.69h26.672c14.613 0 26.457 14.613 26.457 26.457v28.312c0 14.613-11.848 26.457-26.457 26.457h-26.672c-14.613 0-26.457-14.613-26.457-26.457v-28.312c0-14.613 11.848-26.457 26.457-26.457z"/>
  <path d="m524.78 745.6h26.672c14.613 0 26.457 14.613 26.457 26.457v28.312c0 14.613-11.848 26.457-26.457 26.457h-26.672c-14.613 0-26.457-14.613-26.457-26.457v-28.312c0-14.613 11.848-26.457 26.457-26.457z"/>
  <path d="m524.78 612.62h26.672c14.613 0 26.457 14.613 26.457 26.457v28.312c0 14.613-11.848 26.457-26.457 26.457h-26.672c-14.613 0-26.457-14.613-26.457-26.457v-28.312c0-14.613 11.848-26.457 26.457-26.457z"/>
  <path d="m524.78 479.69h26.672c14.613 0 26.457 14.613 26.457 26.457v28.312c0 14.613-11.848 26.457-26.457 26.457h-26.672c-14.613 0-26.457-14.613-26.457-26.457v-28.312c0-14.613 11.848-26.457 26.457-26.457z"/>
  <path d="m666.33 479.69h26.672c14.613 0 26.457 14.613 26.457 26.457v28.312c0 14.613-11.848 26.457-26.457 26.457h-26.672c-14.613 0-26.457-14.613-26.457-26.457v-28.312c0-14.613 11.848-26.457 26.457-26.457z"/>
  <path d="m807.88 479.69c-7.0156 0-13.746 2.7891-18.707 7.75-4.9609 4.9648-7.75 11.691-7.75 18.711v26.988c26.121-5.3281 52.941-6.293 79.375-2.8594v-24.129c0-7.0195-2.7852-13.746-7.75-18.711-4.9609-4.9609-11.691-7.75-18.707-7.75z"/>
  <path d="m830.16 565.31c-54.852 0.042969-107.44 21.867-146.2 60.68-38.762 38.812-60.52 91.426-60.492 146.28 0.027344 54.852 21.84 107.45 60.641 146.22s91.414 60.543 146.27 60.531c54.852-0.015625 107.45-21.816 146.23-60.605 38.781-38.793 60.57-91.398 60.57-146.25-0.058593-54.871-21.891-107.48-60.707-146.26-38.812-38.785-91.434-60.578-146.3-60.594zm0 366.08c-42.223-0.042969-82.695-16.852-112.53-46.73-29.828-29.879-46.57-70.383-46.543-112.61 0.027344-42.219 16.824-82.699 46.691-112.54 29.871-29.84 70.367-46.594 112.59-46.582 42.219 0.015625 82.707 16.797 112.55 46.656 29.852 29.859 46.621 70.352 46.621 112.57-0.058593 42.238-16.875 82.723-46.762 112.57-29.883 29.848-70.391 46.609-112.62 46.609z"/>
  <path d="m895.68 723.11-41.855 22.383 18.734-61.809h-0.003907c1.0938-6.8789-3.0508-13.512-9.7109-15.551-6.6602-2.0391-13.805 1.1406-16.75 7.457l-23.758 78.371v-0.003906c-5.918 2.5703-10.395 7.6289-12.227 13.812-1.7773 5.5156-1.2617 11.516 1.4375 16.645 2.6992 5.125 7.3516 8.9531 12.906 10.609 5.9688 1.9102 12.48 1.0781 17.777-2.2773 5.5469-3.3828 9.2031-9.1523 9.8984-15.609l56.566-30.215c6.5742-3.5234 9.0508-11.707 5.5312-18.285-3.5234-6.5742-11.707-9.0508-18.285-5.5273z"/>
 </g>
</svg>
